<svg width="39" height="39" viewBox="0 0 39 39" fill="none" xmlns="http://www.w3.org/2000/svg">
<path d="M19.5 35.75C28.4746 35.75 35.75 28.4746 35.75 19.5C35.75 10.5254 28.4746 3.25 19.5 3.25C10.5254 3.25 3.25 10.5254 3.25 19.5C3.25 21.7407 3.7035 23.8754 4.52371 25.8174C4.97702 26.8907 5.20367 27.4274 5.23173 27.833C5.2598 28.2385 5.14043 28.6847 4.90168 29.577L3.25 35.75L9.423 34.0983C10.3153 33.8596 10.7615 33.7402 11.167 33.7683C11.5726 33.7963 12.1093 34.023 13.1826 34.4763C15.1246 35.2965 17.2593 35.75 19.5 35.75Z" stroke="#FBFAFA" stroke-width="1.5" stroke-linejoin="round"/>
<path d="M13.9558 20.1132L15.371 18.3554C15.9675 17.6146 16.7049 16.9248 16.7626 15.9384C16.7772 15.6893 16.6019 14.5707 16.2513 12.3335C16.1135 11.4543 15.2927 11.375 14.5817 11.375C13.6551 11.375 13.1918 11.375 12.7318 11.5851C12.1504 11.8507 11.5534 12.5975 11.4224 13.2232C11.3188 13.7182 11.3958 14.0593 11.5498 14.7415C12.2041 17.6391 13.7391 20.5008 16.1192 22.8808C18.4992 25.2609 21.3609 26.7959 24.2585 27.4502C24.9407 27.6042 25.2818 27.6812 25.7768 27.5776C26.4025 27.4466 27.1493 26.8496 27.4149 26.2682C27.625 25.8082 27.625 25.3449 27.625 24.4183C27.625 23.7073 27.5457 22.8865 26.6665 22.7487C24.4293 22.3981 23.3107 22.2228 23.0616 22.2374C22.0752 22.2951 21.3854 23.0325 20.6446 23.629L18.8868 25.0442" stroke="#FBFAFA" stroke-width="1.5"/>
</svg>
