<svg width="25" height="25" viewBox="0 0 25 25" fill="none" xmlns="http://www.w3.org/2000/svg">
<path d="M21.3472 15.5888L16.9306 13.6098L16.9184 13.6041C16.6892 13.5061 16.439 13.4667 16.1907 13.4896C15.9424 13.5126 15.7037 13.597 15.4963 13.7354C15.4718 13.7515 15.4484 13.7691 15.4259 13.7879L13.1441 15.7332C11.6984 15.031 10.2059 13.5498 9.50376 12.1229L11.4519 9.80633C11.4706 9.7829 11.4884 9.75946 11.5053 9.73415C11.6407 9.52724 11.7229 9.29007 11.7445 9.04375C11.7661 8.79742 11.7264 8.54958 11.6291 8.32227V8.31102L9.64438 3.88696C9.5157 3.59002 9.29444 3.34266 9.01362 3.18181C8.7328 3.02095 8.4075 2.95523 8.08626 2.99446C6.81592 3.16162 5.64986 3.78549 4.80588 4.74955C3.9619 5.7136 3.49771 6.95192 3.50001 8.23321C3.50001 15.677 9.55626 21.7332 17 21.7332C18.2813 21.7355 19.5196 21.2713 20.4837 20.4273C21.4477 19.5834 22.0716 18.4173 22.2388 17.147C22.2781 16.8258 22.2125 16.5006 22.0518 16.2198C21.8911 15.939 21.644 15.7177 21.3472 15.5888ZM17 20.2332C13.8185 20.2297 10.7682 18.9643 8.51856 16.7147C6.26888 14.465 5.00348 11.4147 5.00001 8.23321C4.99648 7.31773 5.32631 6.43227 5.92789 5.74218C6.52947 5.0521 7.36167 4.60458 8.26907 4.48321C8.2687 4.48695 8.2687 4.49072 8.26907 4.49446L10.2378 8.90071L8.30001 11.2201C8.28034 11.2427 8.26247 11.2669 8.24657 11.2923C8.10549 11.5088 8.02273 11.758 8.0063 12.0159C7.98988 12.2738 8.04035 12.5315 8.15282 12.7641C9.0022 14.5013 10.7525 16.2385 12.5084 17.087C12.7428 17.1984 13.002 17.2471 13.2608 17.2284C13.5196 17.2096 13.7692 17.1241 13.985 16.9801C14.0091 16.9639 14.0322 16.9463 14.0544 16.9276L16.3334 14.9832L20.7397 16.9566H20.75C20.6301 17.8653 20.1833 18.6992 19.4931 19.3023C18.8028 19.9053 17.9166 20.2363 17 20.2332Z" fill="#725A58"/>
</svg>
