<svg width="25" height="25" viewBox="0 0 25 25" fill="none" xmlns="http://www.w3.org/2000/svg">
<path d="M19.55 5.64346C18.6332 4.71738 17.5412 3.98313 16.3377 3.48351C15.1341 2.98389 13.8432 2.72892 12.54 2.73346C7.08005 2.73346 2.63005 7.18346 2.63005 12.6435C2.63005 14.3935 3.09005 16.0935 3.95005 17.5935L2.55005 22.7335L7.80005 21.3535C9.25005 22.1435 10.88 22.5635 12.54 22.5635C18 22.5635 22.4501 18.1135 22.4501 12.6535C22.4501 10.0035 21.42 7.51346 19.55 5.64346ZM12.54 20.8835C11.06 20.8835 9.61005 20.4835 8.34005 19.7335L8.04005 19.5535L4.92005 20.3735L5.75005 17.3335L5.55005 17.0235C4.7278 15.7104 4.29119 14.1927 4.29005 12.6435C4.29005 8.10346 7.99005 4.40346 12.53 4.40346C14.73 4.40346 16.8 5.26346 18.35 6.82346C19.1175 7.58742 19.7257 8.49612 20.1394 9.49688C20.5531 10.4976 20.7641 11.5706 20.76 12.6535C20.7801 17.1935 17.08 20.8835 12.54 20.8835ZM17.06 14.7235C16.81 14.6035 15.59 14.0035 15.37 13.9135C15.14 13.8335 14.98 13.7935 14.81 14.0335C14.64 14.2835 14.17 14.8435 14.03 15.0035C13.89 15.1735 13.74 15.1935 13.49 15.0635C13.24 14.9435 12.44 14.6735 11.5 13.8335C10.76 13.1735 10.27 12.3635 10.12 12.1135C9.98005 11.8635 10.1 11.7335 10.23 11.6035C10.34 11.4935 10.48 11.3135 10.6 11.1735C10.72 11.0335 10.77 10.9235 10.85 10.7635C10.93 10.5935 10.89 10.4535 10.83 10.3335C10.77 10.2135 10.27 8.99346 10.07 8.49346C9.87005 8.01346 9.66005 8.07346 9.51005 8.06346H9.03005C8.86005 8.06346 8.60005 8.12346 8.37005 8.37346C8.15005 8.62346 7.51005 9.22346 7.51005 10.4435C7.51005 11.6635 8.40005 12.8435 8.52005 13.0035C8.64005 13.1735 10.27 15.6735 12.75 16.7435C13.34 17.0035 13.8 17.1535 14.16 17.2635C14.75 17.4535 15.29 17.4235 15.72 17.3635C16.2 17.2935 17.19 16.7635 17.39 16.1835C17.6 15.6035 17.6 15.1135 17.53 15.0035C17.46 14.8935 17.31 14.8435 17.06 14.7235Z" fill="#725A58"/>
</svg>
