<svg width="25" height="25" viewBox="0 0 25 25" fill="none" xmlns="http://www.w3.org/2000/svg">
<path d="M12.5 16.7334C13.5609 16.7334 14.5783 16.312 15.3284 15.5618C16.0786 14.8117 16.5 13.7943 16.5 12.7334C16.5 11.6725 16.0786 10.6551 15.3284 9.90497C14.5783 9.15483 13.5609 8.7334 12.5 8.7334C11.4391 8.7334 10.4217 9.15483 9.67157 9.90497C8.92143 10.6551 8.5 11.6725 8.5 12.7334C8.5 13.7943 8.92143 14.8117 9.67157 15.5618C10.4217 16.312 11.4391 16.7334 12.5 16.7334Z" stroke="#725A58" stroke-width="1.5" stroke-linecap="round" stroke-linejoin="round"/>
<path d="M3.5 16.7334V8.7334C3.5 7.40732 4.02678 6.13555 4.96447 5.19786C5.90215 4.26018 7.17392 3.7334 8.5 3.7334H16.5C17.8261 3.7334 19.0979 4.26018 20.0355 5.19786C20.9732 6.13555 21.5 7.40732 21.5 8.7334V16.7334C21.5 18.0595 20.9732 19.3313 20.0355 20.2689C19.0979 21.2066 17.8261 21.7334 16.5 21.7334H8.5C7.17392 21.7334 5.90215 21.2066 4.96447 20.2689C4.02678 19.3313 3.5 18.0595 3.5 16.7334Z" stroke="#725A58" stroke-width="1.5"/>
<path d="M18 7.24245L18.01 7.23145" stroke="#725A58" stroke-width="1.5" stroke-linecap="round" stroke-linejoin="round"/>
</svg>
