<svg width="128" height="132" viewBox="0 0 128 132" fill="none" xmlns="http://www.w3.org/2000/svg">
<path d="M48.2632 53.7539C46.2092 53.7539 44.1736 53.6133 42.27 53.0528C35.4143 51.0272 30.433 44.9646 28.866 38.1118C27.299 31.2278 29.0925 23.6896 33.9169 18.4756C38.3799 13.6542 43.668 12.6552 49.8815 12.6552C49.9456 12.6552 50.0552 12.6597 50.1959 12.6655C50.2712 12.6686 50.3555 12.6721 50.4465 12.6754C50.706 12.6849 51.0173 12.6933 51.3229 12.6884C51.6279 12.6835 51.9293 12.6654 52.1682 12.6214C52.2875 12.5994 52.3935 12.5706 52.4773 12.5326C52.56 12.495 52.6283 12.4452 52.6612 12.3768L52.6614 12.3763C52.667 12.3643 52.6686 12.3503 52.6649 12.3365C52.6614 12.3238 52.6544 12.3148 52.6488 12.3091C52.6382 12.2983 52.6247 12.2915 52.6144 12.2871C52.5924 12.2776 52.5614 12.2694 52.5256 12.2618C52.4528 12.2465 52.3472 12.2315 52.2209 12.217C51.9678 12.1879 51.6255 12.1603 51.2816 12.1363C50.5946 12.0885 49.8953 12.0551 49.8815 12.0551C49.3682 12.0551 48.8542 12.0526 48.34 12.0501C42.8106 12.0232 37.2651 11.9963 32.369 15.0787L32.369 15.0787C24.7393 19.8884 21.3262 29.4663 23.3071 38.1262C25.1395 46.1685 31.5144 52.6311 39.756 53.8768C43.2751 54.4084 46.9493 54.3297 50.561 54.2522C51.8378 54.2249 53.1069 54.1977 54.3584 54.1977C54.4225 54.1977 54.5322 54.2022 54.6729 54.208C54.7482 54.2111 54.8325 54.2146 54.9234 54.2179C55.1829 54.2275 55.4943 54.2358 55.7998 54.2309C56.1049 54.226 56.4063 54.2079 56.6452 54.1639C56.7645 54.1419 56.8705 54.1131 56.9542 54.0751C57.0314 54.04 57.096 53.9943 57.131 53.9328L57.1384 53.9344C57.1432 53.924 57.1451 53.9122 57.143 53.9003V53.8977L57.1425 53.8975C57.1423 53.8966 57.1421 53.8956 57.1418 53.8946C57.1384 53.882 57.1314 53.8729 57.1257 53.8672C57.1151 53.8564 57.1016 53.8496 57.0913 53.8452C57.0693 53.8358 57.0383 53.8275 57.0025 53.82C56.9297 53.8046 56.8241 53.7896 56.6978 53.7751C56.4447 53.746 56.1025 53.7184 55.7585 53.6945C55.0715 53.6466 54.3723 53.6133 54.3584 53.6133C53.3837 53.6133 52.3843 53.6477 51.3752 53.6825L51.3417 53.6836C50.3209 53.7188 49.2901 53.7539 48.2632 53.7539Z" fill="#191919" stroke="#191919" stroke-width="0.1"/>
<path d="M67.0187 95.7265V12.3164C67.0187 12.2892 67.0063 12.2668 66.9909 12.25C66.9758 12.2335 66.956 12.2201 66.9345 12.2088C66.8914 12.1861 66.8314 12.1663 66.7594 12.1486C66.6145 12.1129 66.4085 12.0826 66.1609 12.0565C65.6649 12.0043 64.994 11.9686 64.2925 11.9442C62.8891 11.8953 61.3589 11.8914 60.851 11.8914C60.5289 11.8914 59.8436 11.9208 59.2387 11.9786C58.9364 12.0074 58.6524 12.0435 58.4434 12.0869C58.3393 12.1085 58.2511 12.1325 58.188 12.1593C58.1567 12.1727 58.1286 12.1879 58.1075 12.2061C58.0867 12.2239 58.0664 12.2502 58.0664 12.2852C58.0664 12.3086 58.0785 12.3258 58.0895 12.3362C58.1002 12.3465 58.1133 12.3538 58.1255 12.3594C58.1501 12.3706 58.1832 12.3798 58.2211 12.3876C58.2979 12.4035 58.4064 12.4166 58.5365 12.4274C58.7972 12.4492 59.1518 12.4626 59.5285 12.4709C60.1769 12.4852 60.8939 12.4843 61.3177 12.4838C61.3656 12.4837 61.4096 12.4837 61.4495 12.4837V95.7265H59.679C59.6149 95.7265 59.5053 95.722 59.3646 95.7162C59.2892 95.7131 59.205 95.7096 59.114 95.7063C58.8545 95.6967 58.5432 95.6884 58.2377 95.6933C57.9326 95.6982 57.6312 95.7163 57.3923 95.7603C57.273 95.7822 57.167 95.8111 57.0832 95.8491C57.0005 95.8867 56.9323 95.9365 56.8994 96.0048H56.8994L56.8991 96.0054C56.8935 96.0174 56.8919 96.0314 56.8956 96.0452C56.8991 96.0578 56.9061 96.0669 56.9117 96.0726C56.9223 96.0834 56.9358 96.0902 56.9461 96.0946C56.9682 96.104 56.9991 96.1123 57.0349 96.1198C57.1078 96.1352 57.2133 96.1502 57.3396 96.1647C57.5927 96.1938 57.935 96.2214 58.2789 96.2454C58.966 96.2932 59.6652 96.3265 59.679 96.3265H73.8599C74.8643 96.3265 75.8872 96.347 76.9199 96.3676C80.5799 96.4408 84.3609 96.5164 87.8647 95.6923L87.8532 95.6437L87.8647 95.6923C96.9338 93.5494 102.041 85.7949 102.902 77.4989C103.763 69.2035 100.38 60.3547 92.4557 56.0184L92.4541 56.0175L92.4401 56.0106C92.4398 56.0104 92.4395 56.0103 92.4393 56.0101C89.6179 54.4664 86.5279 53.8679 83.3718 53.6548C81.1841 53.507 78.9611 53.5444 76.7732 53.5812C75.8063 53.5975 74.8461 53.6136 73.8989 53.6136C73.8348 53.6136 73.7252 53.6091 73.5845 53.6033C73.5091 53.6002 73.4249 53.5967 73.3339 53.5934C73.0745 53.5839 72.7631 53.5755 72.4576 53.5804C72.1525 53.5853 71.8511 53.6034 71.6122 53.6474C71.4929 53.6694 71.3869 53.6982 71.3031 53.7362C71.2205 53.7738 71.1522 53.8236 71.1193 53.8919L71.119 53.8925C71.1134 53.9045 71.1118 53.9185 71.1156 53.9323C71.119 53.945 71.126 53.954 71.1317 53.9597C71.1422 53.9705 71.1557 53.9773 71.166 53.9817C71.1881 53.9912 71.219 53.9994 71.2549 54.007C71.3277 54.0223 71.4333 54.0373 71.5595 54.0518C71.8127 54.0809 72.1549 54.1085 72.4989 54.1325C73.1859 54.1803 73.8851 54.2137 73.8989 54.2137C74.6846 54.2137 75.4847 54.1861 76.2882 54.1585C76.696 54.1445 77.1047 54.1304 77.5128 54.1199C78.7262 54.0886 79.9366 54.0887 81.113 54.2134C85.7765 54.7117 90.1328 57.6402 92.9862 61.2577C99.043 68.9514 99.1522 80.443 93.2902 88.2772C90.4599 92.0587 85.9866 95.2285 81.1756 95.7268C79.8936 95.857 78.5585 95.8131 77.2358 95.7696C76.5787 95.748 75.9247 95.7265 75.2819 95.7265H67.0187Z" fill="#191919" stroke="#191919" stroke-width="0.1"/>
<path d="M120.913 122.727L123.14 117.395C123.46 116.614 123.62 116.18 123.62 116.094C123.62 115.704 123.186 115.5 122.319 115.485V114.946H125.694V115.485C125.171 115.508 124.788 115.649 124.546 115.907C124.304 116.157 124.003 116.715 123.643 117.583L119.366 127.907C118.96 128.891 118.6 129.559 118.288 129.911C117.975 130.27 117.632 130.45 117.257 130.45C116.749 130.45 116.495 130.219 116.495 129.758C116.495 129.227 116.901 128.778 117.714 128.411C118.19 128.2 118.507 128.02 118.663 127.872C118.827 127.723 118.987 127.454 119.143 127.063L120.057 124.778L116.448 117.043C116.128 116.364 115.862 115.934 115.651 115.754C115.44 115.575 115.081 115.485 114.573 115.485V114.946H118.979V115.485C118.206 115.508 117.819 115.668 117.819 115.965C117.819 116.083 117.972 116.465 118.276 117.114L120.913 122.727Z" fill="#191919"/>
<path d="M114.268 115.485H111.374V121.286C111.374 122.176 111.413 122.778 111.491 123.09C111.569 123.395 111.733 123.641 111.983 123.829C112.241 124.016 112.515 124.11 112.804 124.11C113.366 124.11 113.854 123.79 114.268 123.149L114.643 123.372C114.401 123.887 114.042 124.278 113.565 124.543C113.097 124.801 112.62 124.93 112.136 124.93C111.573 124.93 111.077 124.766 110.647 124.438C110.225 124.102 109.96 123.711 109.85 123.266C109.749 122.821 109.698 122.04 109.698 120.922V115.485H108.304V114.946C108.944 114.93 109.518 114.661 110.026 114.137C110.534 113.614 110.858 112.879 110.999 111.934H111.374V114.946H114.268V115.485Z" fill="#191919"/>
<path d="M105.597 114.946V121.239C105.597 122.286 105.612 122.942 105.643 123.208C105.675 123.473 105.788 123.672 105.983 123.805C106.186 123.938 106.546 124.004 107.061 124.004V124.543C105.874 124.559 105.007 124.684 104.46 124.918H104.319C104.069 124.489 103.936 123.747 103.921 122.692C103.444 123.434 102.897 123.993 102.28 124.368C101.671 124.743 100.995 124.93 100.253 124.93C99.6122 124.93 99.0458 124.786 98.5536 124.497C98.0614 124.2 97.7216 123.84 97.5341 123.418C97.3544 122.997 97.2645 122.36 97.2645 121.508V118.239C97.2645 117.129 97.245 116.454 97.2059 116.211C97.1669 115.961 97.0419 115.778 96.8309 115.661C96.6278 115.543 96.2489 115.485 95.6942 115.485V114.946H98.952V121.602C98.952 122.258 98.9911 122.735 99.0692 123.032C99.1473 123.329 99.3466 123.59 99.6669 123.817C99.9872 124.036 100.358 124.145 100.78 124.145C101.382 124.145 101.956 123.95 102.503 123.559C103.05 123.161 103.421 122.743 103.616 122.305C103.819 121.86 103.921 121.227 103.921 120.407V118.239C103.921 117.192 103.909 116.555 103.886 116.329C103.862 116.102 103.761 115.907 103.581 115.743C103.409 115.571 103.046 115.485 102.491 115.485H102.245V114.946H105.597Z" fill="#191919"/>
<path d="M94.4872 122.786H94.9208C94.8505 124.122 94.1942 124.79 92.952 124.79C92.4208 124.79 91.9989 124.649 91.6864 124.368C91.3817 124.086 91.1825 123.668 91.0887 123.114C90.3075 123.668 89.5927 124.086 88.9442 124.368C88.3036 124.649 87.7294 124.79 87.2216 124.79C86.5731 124.79 86.0145 124.602 85.5458 124.227C85.077 123.852 84.8427 123.356 84.8427 122.739C84.8427 121.934 85.2333 121.231 86.0145 120.629C86.8036 120.028 87.8895 119.442 89.2723 118.872L91.0887 118.133V117.665C91.0887 117 91.0458 116.52 90.9598 116.223C90.8739 115.926 90.6512 115.661 90.2919 115.426C89.9325 115.192 89.4598 115.075 88.8739 115.075C87.702 115.075 87.0497 115.465 86.9169 116.247C86.7919 117.043 86.4637 117.442 85.9325 117.442C85.4559 117.442 85.2177 117.215 85.2177 116.762C85.2177 116.317 85.5341 115.84 86.1669 115.333C86.7997 114.817 87.7841 114.559 89.12 114.559C90.1122 114.559 90.8817 114.715 91.4286 115.028C91.9755 115.34 92.3348 115.696 92.5067 116.094C92.6864 116.493 92.7762 117.102 92.7762 117.922V121.801C92.7762 122.708 92.8231 123.29 92.9169 123.547C93.0106 123.805 93.2137 123.934 93.5262 123.934C94.0419 123.934 94.3622 123.551 94.4872 122.786ZM91.0887 118.684L89.8114 119.2C87.7958 120.02 86.788 121.051 86.788 122.293C86.788 122.786 86.9169 123.184 87.1747 123.489C87.4325 123.786 87.7684 123.934 88.1825 123.934C88.5497 123.934 88.9755 123.813 89.4598 123.571C89.9442 123.329 90.4872 122.965 91.0887 122.481V118.684Z" fill="#191919"/>
<path d="M83.0028 118.192H76.3114C76.2802 118.653 76.2645 118.997 76.2645 119.223C76.2645 120.911 76.5262 122.18 77.0497 123.032C77.5809 123.875 78.37 124.297 79.4169 124.297C80.8387 124.297 81.8466 123.661 82.4403 122.387H83.0028C82.7528 123.184 82.2567 123.809 81.5145 124.262C80.7723 124.708 79.9637 124.93 79.0887 124.93C78.2762 124.93 77.5067 124.727 76.7802 124.321C76.0614 123.907 75.4716 123.325 75.0106 122.575C74.5497 121.825 74.3192 120.915 74.3192 119.844C74.3192 118.329 74.7645 117.071 75.6552 116.071C76.5458 115.063 77.6591 114.559 78.995 114.559C80.2528 114.559 81.2255 114.942 81.913 115.708C82.6005 116.473 82.9637 117.301 83.0028 118.192ZM80.952 117.723C80.9755 117.543 80.9872 117.383 80.9872 117.243C80.9872 116.555 80.7841 116.024 80.3778 115.649C79.9794 115.266 79.4872 115.075 78.9012 115.075C77.4794 115.075 76.6317 115.958 76.3583 117.723H80.952Z" fill="#191919"/>
<path d="M67.0067 115.989C68.8114 116.122 70.1512 116.571 71.0262 117.336C71.9012 118.102 72.3387 119.059 72.3387 120.208C72.3387 121.208 72.0419 122.071 71.4481 122.797C70.8544 123.516 70.0927 123.989 69.163 124.215C68.2411 124.434 67.0028 124.543 65.4481 124.543H59.2137V124.004H59.8231C60.5028 124.004 60.9716 123.918 61.2294 123.747C61.495 123.575 61.663 123.309 61.7333 122.95C61.8036 122.583 61.8387 121.735 61.8387 120.407V112.672C61.8387 111.383 61.7997 110.551 61.7216 110.176C61.6512 109.801 61.495 109.543 61.2528 109.403C61.0184 109.262 60.4989 109.192 59.6942 109.192H59.3895V108.653L62.0028 108.583L64.9794 108.489C69.3231 108.489 71.495 109.739 71.495 112.239C71.495 113.27 71.12 114.098 70.37 114.723C69.6278 115.348 68.5067 115.77 67.0067 115.989ZM64.1356 115.766C64.3309 115.774 64.495 115.778 64.6278 115.778C66.3153 115.778 67.4677 115.512 68.0848 114.981C68.702 114.45 69.0106 113.59 69.0106 112.403C69.0106 111.575 68.8895 110.934 68.6473 110.481C68.4052 110.028 68.0419 109.68 67.5575 109.438C67.0731 109.188 66.245 109.063 65.0731 109.063C64.7684 109.063 64.4559 109.075 64.1356 109.098V115.766ZM64.1356 116.34V119.879C64.1356 121.387 64.163 122.344 64.2177 122.75C64.2723 123.157 64.4169 123.465 64.6512 123.676C64.8934 123.887 65.3661 123.993 66.0692 123.993C67.3192 123.993 68.2567 123.672 68.8817 123.032C69.5067 122.391 69.8192 121.43 69.8192 120.149C69.8192 118.836 69.4637 117.872 68.7528 117.254C68.0497 116.629 66.8075 116.317 65.0262 116.317C64.745 116.317 64.4481 116.325 64.1356 116.34Z" fill="#191919"/>
<path d="M51.9716 122.786H52.4052C52.3348 124.122 51.6786 124.79 50.4364 124.79C49.9052 124.79 49.4833 124.649 49.1708 124.368C48.8661 124.086 48.6669 123.668 48.5731 123.114C47.7919 123.668 47.077 124.086 46.4286 124.368C45.788 124.649 45.2137 124.79 44.7059 124.79C44.0575 124.79 43.4989 124.602 43.0302 124.227C42.5614 123.852 42.327 123.356 42.327 122.739C42.327 121.934 42.7177 121.231 43.4989 120.629C44.288 120.028 45.3739 119.442 46.7567 118.872L48.5731 118.133V117.665C48.5731 117 48.5302 116.52 48.4442 116.223C48.3583 115.926 48.1356 115.661 47.7762 115.426C47.4169 115.192 46.9442 115.075 46.3583 115.075C45.1864 115.075 44.5341 115.465 44.4012 116.247C44.2762 117.043 43.9481 117.442 43.4169 117.442C42.9403 117.442 42.702 117.215 42.702 116.762C42.702 116.317 43.0184 115.84 43.6512 115.333C44.2841 114.817 45.2684 114.559 46.6044 114.559C47.5966 114.559 48.3661 114.715 48.913 115.028C49.4598 115.34 49.8192 115.696 49.9911 116.094C50.1708 116.493 50.2606 117.102 50.2606 117.922V121.801C50.2606 122.708 50.3075 123.29 50.4012 123.547C50.495 123.805 50.6981 123.934 51.0106 123.934C51.5262 123.934 51.8466 123.551 51.9716 122.786ZM48.5731 118.684L47.2958 119.2C45.2802 120.02 44.2723 121.051 44.2723 122.293C44.2723 122.786 44.4012 123.184 44.6591 123.489C44.9169 123.786 45.2528 123.934 45.6669 123.934C46.0341 123.934 46.4598 123.813 46.9442 123.571C47.4286 123.329 47.9716 122.965 48.5731 122.481V118.684Z" fill="#191919"/>
<path d="M39.3153 108.43V121.25C39.3153 122.274 39.327 122.918 39.3505 123.184C39.3817 123.45 39.495 123.653 39.6903 123.793C39.8856 123.934 40.2333 124.004 40.7333 124.004H41.0145V124.543H35.8817V124.004H36.2098C36.6786 124.004 37.0106 123.942 37.2059 123.817C37.4091 123.684 37.5302 123.5 37.5692 123.266C37.6083 123.032 37.6278 122.36 37.6278 121.25V111.758C37.6278 110.75 37.538 110.118 37.3583 109.86C37.1786 109.594 36.7411 109.461 36.0458 109.461V108.922C36.5223 108.922 37.0809 108.868 37.7216 108.758C38.37 108.649 38.8153 108.54 39.0575 108.43H39.3153Z" fill="#191919"/>
<path d="M31.3583 117.008C31.6239 116.313 32.0536 115.731 32.6473 115.262C33.2489 114.793 33.8348 114.559 34.4052 114.559C34.9208 114.559 35.327 114.719 35.6239 115.04C35.9208 115.36 36.0692 115.688 36.0692 116.024C36.0692 116.25 35.9911 116.446 35.8348 116.61C35.6864 116.774 35.5028 116.856 35.2841 116.856C34.8934 116.856 34.5966 116.567 34.3934 115.989C34.2528 115.598 34.0419 115.403 33.7606 115.403C33.4247 115.403 33.0223 115.633 32.5536 116.094C32.0848 116.547 31.7841 117.02 31.6512 117.512C31.5184 118.004 31.452 118.68 31.452 119.54V121.25C31.452 122.274 31.4637 122.918 31.4872 123.184C31.5184 123.45 31.6317 123.653 31.827 123.793C32.0223 123.934 32.37 124.004 32.87 124.004H33.1981V124.543H28.1005V124.004H28.3466C28.8153 124.004 29.1473 123.942 29.3427 123.817C29.5458 123.684 29.6669 123.5 29.7059 123.266C29.745 123.032 29.7645 122.36 29.7645 121.25V118.543C29.7645 117.512 29.7489 116.868 29.7177 116.61C29.6942 116.344 29.5848 116.141 29.3895 116C29.1942 115.852 28.8466 115.778 28.3466 115.778H28.1005V115.25C28.8348 115.165 29.7958 114.934 30.9833 114.559C31.2098 115.176 31.3348 115.993 31.3583 117.008Z" fill="#191919"/>
<path d="M26.6825 122.786H27.1161C27.0458 124.122 26.3895 124.79 25.1473 124.79C24.6161 124.79 24.1942 124.649 23.8817 124.368C23.577 124.086 23.3778 123.668 23.2841 123.114C22.5028 123.668 21.788 124.086 21.1395 124.368C20.4989 124.649 19.9247 124.79 19.4169 124.79C18.7684 124.79 18.2098 124.602 17.7411 124.227C17.2723 123.852 17.038 123.356 17.038 122.739C17.038 121.934 17.4286 121.231 18.2098 120.629C18.9989 120.028 20.0848 119.442 21.4677 118.872L23.2841 118.133V117.665C23.2841 117 23.2411 116.52 23.1552 116.223C23.0692 115.926 22.8466 115.661 22.4872 115.426C22.1278 115.192 21.6552 115.075 21.0692 115.075C19.8973 115.075 19.245 115.465 19.1122 116.247C18.9872 117.043 18.6591 117.442 18.1278 117.442C17.6512 117.442 17.413 117.215 17.413 116.762C17.413 116.317 17.7294 115.84 18.3622 115.333C18.995 114.817 19.9794 114.559 21.3153 114.559C22.3075 114.559 23.077 114.715 23.6239 115.028C24.1708 115.34 24.5302 115.696 24.702 116.094C24.8817 116.493 24.9716 117.102 24.9716 117.922V121.801C24.9716 122.708 25.0184 123.29 25.1122 123.547C25.2059 123.805 25.4091 123.934 25.7216 123.934C26.2372 123.934 26.5575 123.551 26.6825 122.786ZM23.2841 118.684L22.0067 119.2C19.9911 120.02 18.9833 121.051 18.9833 122.293C18.9833 122.786 19.1122 123.184 19.37 123.489C19.6278 123.786 19.9637 123.934 20.3778 123.934C20.745 123.934 21.1708 123.813 21.6552 123.571C22.1395 123.329 22.6825 122.965 23.2841 122.481V118.684Z" fill="#191919"/>
<path d="M14.0262 118.579H14.5302V124.145H14.0262C13.8856 123.512 13.6317 122.954 13.2645 122.469C11.8661 124.047 10.0809 124.836 7.90906 124.836C5.61218 124.836 3.73328 124.11 2.27234 122.657C0.819214 121.204 0.0926514 119.282 0.0926514 116.891C0.0926514 115.321 0.428589 113.844 1.10046 112.461C1.77234 111.071 2.70984 110.04 3.91296 109.368C5.11609 108.696 6.4364 108.36 7.8739 108.36C9.0614 108.36 10.1356 108.606 11.0966 109.098C12.0653 109.583 12.788 110.122 13.2645 110.715C13.6005 110.051 13.8036 109.364 13.8739 108.653H14.3895L14.5302 114.676H14.0262C13.6747 112.536 12.9559 111.047 11.87 110.211C10.7919 109.375 9.57312 108.958 8.21375 108.958C6.54968 108.958 5.22546 109.633 4.24109 110.985C3.26453 112.336 2.77625 114.27 2.77625 116.786C2.77625 119.168 3.3114 120.997 4.38171 122.27C5.45203 123.536 6.78406 124.168 8.37781 124.168C9.22937 124.168 10.1005 123.961 10.9911 123.547C11.8817 123.133 12.5848 122.434 13.1005 121.45C13.6239 120.458 13.9325 119.5 14.0262 118.579Z" fill="#191919"/>
</svg>
